<?xml version="1.0" encoding="utf-8"?>
<!-- Generator: Adobe Illustrator 16.0.4, SVG Export Plug-In . SVG Version: 6.00 Build 0)  -->
<!DOCTYPE svg PUBLIC "-//W3C//DTD SVG 1.1 Tiny//EN" "http://www.w3.org/Graphics/SVG/1.1/DTD/svg11-tiny.dtd">
<svg version="1.1" baseProfile="tiny" id="Layer_1" xmlns="http://www.w3.org/2000/svg" xmlns:xlink="http://www.w3.org/1999/xlink"
	 x="0px" y="0px" width="124px" height="36px" viewBox="0 0 124 36" xml:space="preserve">
<g>
	<path fill="#FF671B" d="M0,10.397h5.09v2.693c2.098-1.844,3.79-2.995,6.737-2.995v5.393c-0.5-0.201-1-0.301-1.547-0.301
		c-2.147,0-5.19,1.348-5.19,5.489v15.023H0V10.397z"/>
	<path fill="#FF671B" d="M13.871,2.712c0-1.4,1.146-2.546,2.546-2.546c1.397,0,2.546,1.146,2.546,2.546
		c0,1.399-1.148,2.544-2.546,2.544C15.018,5.256,13.871,4.112,13.871,2.712z"/>
	<path fill="#FF671B" d="M13.871,10.397h5.092v25.302h-5.092V10.397z"/>
	<path fill="#FF671B" d="M32.088,35.699h-4.494l-6.586-25.302h5.39l3.392,16.167h0.1l3.395-16.167h5.391L32.088,35.699z"/>
	<path fill="#FF671B" d="M44.263,24.969v3.442c0,1.601,0.949,2.497,2.496,2.497c1.946,0,2.396-1.447,2.497-2.549h5.089
		c0,2.1-0.749,4.045-2.046,5.393C50.952,35.15,49.104,36,46.759,36c-3.093,0-5.439-1.451-6.636-3.646
		c-0.699-1.297-0.949-3.093-0.949-5.14V18.88c0-2.046,0.25-3.844,0.949-5.142c1.197-2.196,3.543-3.643,6.636-3.643
		c4.693,0,7.586,3.441,7.586,7.889v6.985H44.263z M44.263,20.977h4.993v-2.896c0-1.896-0.95-2.894-2.497-2.894
		c-1.546,0-2.496,0.998-2.496,2.894V20.977z"/>
	<path fill="#FF671B" d="M56.423,10.397h5.092v2.693c2.096-1.844,3.792-2.995,6.737-2.995v5.393
		c-0.498-0.201-0.998-0.301-1.547-0.301c-2.145,0-5.19,1.348-5.19,5.489v15.023h-5.092V10.397z"/>
	<path fill="#FF671B" d="M70.297,0.167h5.092v12.524h0.1c1.099-1.646,2.693-2.596,4.688-2.596c2.445,0,3.699,0.95,4.548,2.297
		c0.645,1.049,0.795,2.496,0.795,6.14v9.632c0,2.793-0.25,4.342-0.853,5.438C83.771,35.248,82.277,36,80.23,36
		c-2.549,0-3.547-1.148-4.842-2.598v2.297h-5.093L70.297,0.167L70.297,0.167z M80.426,18.181c0-1.594-0.547-2.994-2.49-2.994
		c-1.451,0-2.547,1.147-2.547,2.744v9.834c0,1.846,0.998,3.144,2.547,3.144c1.746,0,2.49-1.396,2.49-3.443V18.181z"/>
	<path fill="#FF671B" d="M92.668,24.969v3.442c0,1.601,0.947,2.497,2.496,2.497c1.947,0,2.398-1.447,2.498-2.549h5.09
		c0,2.1-0.748,4.045-2.047,5.393C99.359,35.15,97.514,36,95.164,36c-3.096,0-5.439-1.451-6.637-3.646
		c-0.699-1.297-0.949-3.093-0.949-5.14V18.88c0-2.046,0.25-3.844,0.949-5.142c1.197-2.196,3.541-3.643,6.637-3.643
		c4.691,0,7.588,3.441,7.588,7.889v6.985H92.668z M92.668,20.977h4.994v-2.896c0-1.896-0.949-2.894-2.498-2.894
		s-2.496,0.998-2.496,2.894V20.977z"/>
	<path fill="#FF671B" d="M114.957,33.402C113.656,34.85,112.656,36,110.109,36c-2.043,0-3.541-0.752-4.438-2.398
		c-0.603-1.096-0.851-2.645-0.851-5.438v-9.632c0-3.644,0.15-5.091,0.802-6.14c0.846-1.347,2.094-2.297,4.539-2.297
		c1.991,0,3.592,0.95,4.688,2.596h0.105V0.167h5.086V35.7h-5.086v-2.298H114.957z M109.912,27.465c0,2.047,0.746,3.443,2.494,3.443
		c1.549,0,2.551-1.297,2.551-3.145V17.93c0-1.597-1.104-2.744-2.551-2.744c-1.943,0-2.494,1.399-2.494,2.994V27.465z"/>
	<g>
		<path fill="#FF671B" d="M122.508,0.104c0.828,0,1.492,0.668,1.492,1.494c0,0.824-0.664,1.494-1.492,1.494
			c-0.824,0-1.486-0.669-1.486-1.494C121.021,0.772,121.684,0.104,122.508,0.104z M122.508,0.376c-0.658,0-1.195,0.548-1.195,1.221
			c0,0.671,0.537,1.221,1.195,1.221c0.662,0,1.197-0.549,1.197-1.221C123.705,0.925,123.17,0.376,122.508,0.376z M121.945,0.729
			h0.658c0.399,0,0.6,0.16,0.6,0.49c0,0.325-0.203,0.457-0.445,0.486l0.498,0.764h-0.33l-0.498-0.756h-0.209v0.756h-0.273V0.729
			L121.945,0.729z M122.219,1.465h0.307c0.271,0,0.404-0.074,0.404-0.259c0-0.162-0.131-0.231-0.316-0.231h-0.395V1.465z"/>
	</g>
</g>
</svg>
