<?xml version="1.0" encoding="utf-8"?>
<!-- Generator: Adobe Illustrator 16.0.4, SVG Export Plug-In . SVG Version: 6.00 Build 0)  -->
<!DOCTYPE svg PUBLIC "-//W3C//DTD SVG 1.1//EN" "http://www.w3.org/Graphics/SVG/1.1/DTD/svg11.dtd">
<svg version="1.1" id="Layer_1" xmlns="http://www.w3.org/2000/svg" xmlns:xlink="http://www.w3.org/1999/xlink" x="0px" y="0px"
	 width="86px" height="25px" viewBox="0 0 86 25" enable-background="new 0 0 86 25" xml:space="preserve">
<g>
	<path fill="#FF671B" d="M0,7.282h3.527v1.867C4.98,7.87,6.152,7.074,8.188,7.074v3.733c-0.349-0.14-0.693-0.207-1.066-0.207
		c-1.485,0-3.595,0.929-3.595,3.797v10.396H0V7.282z"/>
	<path fill="#FF671B" d="M9.396,1.968C9.396,0.885,10.281,0,11.368,0c1.08,0,1.962,0.885,1.962,1.968
		c0,1.078-0.882,1.964-1.962,1.964C10.281,3.932,9.396,3.045,9.396,1.968"/>
	<rect x="9.601" y="7.283" fill="#FF671B" width="3.529" height="17.511"/>
	<polygon fill="#FF671B" points="22.211,24.794 19.098,24.794 14.546,7.282 18.271,7.282 20.62,18.472 20.687,18.472 23.039,7.282 
		26.767,7.282 	"/>
	<path fill="#FF671B" d="M30.637,14.606h3.448v-2.003c0-1.315-0.654-2.002-1.725-2.002c-1.069,0-1.724,0.687-1.724,2.002V14.606z
		 M30.637,17.366v2.383c0,1.107,0.654,1.729,1.724,1.729c1.351,0,1.657-1.001,1.725-1.765h3.526c0,1.451-0.523,2.802-1.419,3.73
		C35.257,24.412,33.984,25,32.36,25c-2.136,0-3.767-1.005-4.592-2.521c-0.479-0.901-0.657-2.141-0.657-3.555v-5.771
		c0-1.416,0.178-2.659,0.657-3.557c0.825-1.521,2.456-2.522,4.592-2.522c3.247,0,5.251,2.382,5.251,5.458v4.834H30.637z"/>
	<path fill="#FF671B" d="M39.047,7.282h3.527v1.867c1.441-1.279,2.616-2.075,4.661-2.075v3.733c-0.347-0.14-0.692-0.207-1.071-0.207
		c-1.486,0-3.59,0.929-3.59,3.797v10.396h-3.527V7.282z"/>
	<path fill="#FF671B" d="M55.661,12.67c0-1.104-0.387-2.07-1.733-2.07c-0.998,0-1.758,0.792-1.758,1.894v6.81
		c0,1.273,0.687,2.174,1.758,2.174c1.217,0,1.733-0.966,1.733-2.383V12.67z M48.653,0.203h3.517V8.87h0.076
		c0.755-1.136,1.855-1.795,3.243-1.795c1.688,0,2.553,0.659,3.138,1.588c0.452,0.73,0.553,1.731,0.553,4.249v6.666
		c0,1.936-0.174,3.007-0.586,3.766C57.975,24.481,56.934,25,55.519,25c-1.759,0-2.448-0.798-3.349-1.8v1.594h-3.517V0.203z"/>
	<path fill="#FF671B" d="M64.134,14.606h3.445v-2.003c0-1.315-0.655-2.002-1.725-2.002c-1.068,0-1.721,0.687-1.721,2.002V14.606z
		 M64.134,17.366v2.383c0,1.107,0.652,1.729,1.721,1.729c1.354,0,1.658-1.001,1.725-1.765h3.527c0,1.451-0.521,2.802-1.418,3.73
		C68.752,24.412,67.481,25,65.854,25c-2.139,0-3.766-1.005-4.592-2.521c-0.479-0.901-0.654-2.141-0.654-3.555v-5.771
		c0-1.416,0.176-2.659,0.654-3.557c0.826-1.521,2.453-2.522,4.592-2.522c3.247,0,5.252,2.382,5.252,5.458v4.834H64.134z"/>
	<path fill="#FF671B" d="M76.061,19.096c0,1.417,0.519,2.383,1.724,2.383c1.074,0,1.764-0.901,1.764-2.174v-6.81
		c0-1.101-0.764-1.894-1.764-1.894c-1.346,0-1.724,0.965-1.724,2.069V19.096z M79.548,23.2c-0.896,1.002-1.592,1.799-3.354,1.799
		c-1.416,0-2.443-0.518-3.074-1.656c-0.415-0.759-0.586-1.83-0.586-3.766v-6.667c0-2.518,0.106-3.519,0.562-4.247
		c0.586-0.931,1.44-1.59,3.14-1.59c1.374,0,2.479,0.659,3.239,1.795h0.072V0.202h3.521v24.592h-3.521V23.2z"/>
	<path fill="#FF671B" d="M84.571,1.105h0.217c0.187,0,0.281-0.05,0.281-0.183c0-0.11-0.087-0.159-0.222-0.159h-0.276V1.105z
		 M84.388,0.592h0.451c0.282,0,0.416,0.11,0.416,0.342c0,0.223-0.14,0.317-0.307,0.334l0.35,0.531h-0.235l-0.345-0.523h-0.146v0.523
		h-0.184V0.592z M84.778,0.348c-0.455,0-0.827,0.381-0.827,0.848c0,0.465,0.372,0.846,0.827,0.846c0.451,0,0.825-0.381,0.825-0.846
		C85.604,0.729,85.229,0.348,84.778,0.348 M84.778,0.164c0.573,0,1.034,0.462,1.034,1.031c0,0.569-0.461,1.033-1.034,1.033
		c-0.577,0-1.037-0.464-1.037-1.033C83.741,0.626,84.201,0.164,84.778,0.164"/>
</g>
</svg>
